<svg width="70" height="30" viewBox="0 0 70 30" fill="none" xmlns="http://www.w3.org/2000/svg">
<path d="M15.3115 29.4118V8.54732e-06H18.3265V26.4286H26.057V29.4118H15.3115Z" fill="#151515"/>
<path d="M28.956 8.54732e-06L28.5308 7.94119H26.4436L26.057 8.54732e-06H28.956Z" fill="#FF8C42"/>
<path d="M34.0557 16.6387L32.4709 19.5378V29.4118H29.456V0H32.4709V14.2017L39.6604 0H42.714L35.8724 13.4034L42.9459 29.4118H39.8536L34.0557 16.6387Z" fill="#151515"/>
<path d="M43.949 7.39497C43.949 5.12606 44.4515 3.33335 45.4565 2.01682C46.4872 0.672287 48.0462 1.97991e-05 50.1335 1.97991e-05C52.2207 1.97991e-05 53.7797 0.672287 54.8105 2.01682C55.8412 3.33335 56.3566 5.12606 56.3566 7.39497V22.605C56.3566 24.8459 55.8412 26.6387 54.8105 27.9832C53.7797 29.3277 52.2207 30 50.1335 30C48.0462 30 46.4872 29.3277 45.4565 27.9832C44.4515 26.6387 43.949 24.8459 43.949 22.605V15V7.39497ZM46.9253 22.7731C46.9253 24.1177 47.183 25.1681 47.6983 25.9244C48.2395 26.6527 49.0512 27.0168 50.1335 27.0168C51.2415 27.0168 52.0532 26.6527 52.5686 25.9244C53.084 25.1681 53.3417 24.1177 53.3417 22.7731V7.22691C53.3417 5.88237 53.084 4.84596 52.5686 4.11766C52.0532 3.36136 51.2415 2.98321 50.1335 2.98321C49.0512 2.98321 48.2395 3.36136 47.6983 4.11766C47.183 4.84596 46.9253 5.88237 46.9253 7.22691V22.7731Z" fill="#151515"/>
<path d="M63.3903 8.54732e-06C65.5291 8.54732e-06 67.0624 0.574239 67.9901 1.7227C68.9435 2.87116 69.4202 4.53783 69.4202 6.72271V9.11766C69.4202 10.7423 69.1496 12.0588 68.6085 13.0672C68.0673 14.0756 67.217 14.7759 66.0574 15.1681C67.2943 15.5602 68.1704 16.2885 68.6858 17.353C69.2012 18.3894 69.4589 19.7059 69.4589 21.3026V25.8824C69.4589 26.5266 69.4846 27.1569 69.5362 27.7731C69.5877 28.3614 69.7423 28.9076 70 29.4118H66.9464C66.766 28.9916 66.6372 28.5435 66.5599 28.0673C66.4826 27.5631 66.4439 26.8208 66.4439 25.8404V21.2185C66.4439 19.5659 66.096 18.4314 65.4003 17.8151C64.7303 17.1709 63.764 16.8488 62.5013 16.8488H60.3754V29.4118H57.3605V8.54732e-06H63.3903ZM62.6173 13.8656C63.8284 13.8656 64.769 13.5995 65.4389 13.0672C66.1089 12.507 66.4439 11.4286 66.4439 9.83195V7.01682C66.4439 5.67228 66.1991 4.66388 65.7095 3.99161C65.2457 3.31934 64.4468 2.98321 63.313 2.98321H60.3754V13.8656H62.6173Z" fill="#151515"/>
<path fill-rule="evenodd" clip-rule="evenodd" d="M2.78301 29.4118L3.82664 23.4874L4.21317 20.6723L7.18945 3.69749L10.243 20.6723L10.6682 23.4874L11.7118 29.4118H14.7268L9.54728 8.54732e-06H5.1795L0 29.4118H2.78301Z" fill="#151515"/>
<path d="M3.82664 23.4874H10.6682L10.243 20.6723H4.21317L3.82664 23.4874Z" fill="#FF8C42"/>
</svg>
